# xmcd
#
# Track frame offsets:
#	150
#	13952
#	29347
#	42250
#	58247
#	75100
#	90880
#	107952
#	122587
#	138170
#	152437
#	167982
#	180315
#	197095
#	215220
#
# Disc length: 3068 seconds
#
# Revision: 1
# Processed by: cddbd v1.5.1PL2 Copyright (c) Steve Scherf et al.
# Submitted via: audiograbber 1.83.01
#
DISCID=c00bfa0f
DTITLE=Music Maestro - MM6154
DYEAR=1900
DGENRE=Karaoke
TTITLE0=Rimes, LeAnn - Blue
TTITLE1=Tillis, Pam - It's Lonely Out There
TTITLE2=Confederate Railroad - See Ya
TTITLE3=Byrd, Tracy - 4 To 1 In Atlanta
TTITLE4=Chesnutt, Mark - Right Place, Wrong Time
TTITLE5=Lonestar - Runnin' Away With My Heart
TTITLE6=Chesney, Kenny - Back In My Arms Again
TTITLE7=Stegall, Keith - Fifty Fifty
TTITLE8=Graham, Tammy - Tell Me Again
TTITLE9=Stewart, Marty and Travis Tritt - Honky Tonkin's What I Do Best
TTITLE10=Diamond Rio - That's What I Get For Lovin' You
TTITLE11=Jefferson, Paul - Check Please
TTITLE12=Brooks and Dunn - Man This Lonely, A
TTITLE13=Clark, Teri - Suddenly Single
TTITLE14=McGraw, Tim - That's Just Me
EXTD=As Listed In KJ Pro
EXTT0=
EXTT1=
EXTT2=
EXTT3=
EXTT4=
EXTT5=
EXTT6=
EXTT7=
EXTT8=
EXTT9=
EXTT10=
EXTT11=
EXTT12=
EXTT13=
EXTT14=
PLAYORDER=
